<svg width="25" height="24" viewBox="0 0 25 24" fill="none" xmlns="http://www.w3.org/2000/svg">
<path d="M6.5196 8.90997C6.5196 5.59997 9.2096 2.90997 12.5196 2.90997C15.8196 2.90997 18.5196 5.60997 18.5196 8.90997L18.7528 10.7838C18.8368 11.4595 18.9897 12.1248 19.2089 12.7694L20.2296 15.77C20.8896 16.87 20.3596 18.3 19.1496 18.7C14.8396 20.14 10.1896 20.14 5.8796 18.7C4.5796 18.26 4.0896 16.95 4.7996 15.77L5.81567 12.9078C6.07695 12.1718 6.2511 11.4077 6.33458 10.6312L6.5196 8.90997Z" stroke="#292D32" stroke-width="1.5" stroke-miterlimit="10" stroke-linecap="round"/>
<path d="M15.5195 19.06C15.5195 20.71 14.1695 22.06 12.5195 22.06C11.6995 22.06 10.9395 21.72 10.3995 21.18C9.85953 20.64 9.51953 19.88 9.51953 19.06" stroke="#292D32" stroke-width="1.5" stroke-miterlimit="10"/>
</svg>
