<svg width="25" height="24" viewBox="0 0 25 24" fill="none" xmlns="http://www.w3.org/2000/svg">
<circle cx="12.5" cy="12" r="12" fill="#219FFB"/>
<path d="M6.07125 10.8519C6.03039 10.4122 6.37641 10.0325 6.81803 10.0325H18.1816C18.6232 10.0325 18.9692 10.4122 18.9283 10.8519L18.4133 16.3957C18.2699 17.9384 16.9754 19.1182 15.4261 19.1182H9.57346C8.02413 19.1182 6.72966 17.9384 6.58632 16.3957L6.07125 10.8519Z" stroke="white" stroke-width="1.125"/>
<path d="M12.6554 9.50574C12.6554 6.95203 11.4587 4.88184 9.9825 4.88184C8.50628 4.88184 7.30957 6.95203 7.30957 9.50574" stroke="white" stroke-width="1.125"/>
<path d="M12.4948 7.37794L13.2797 5.69475C13.4548 5.31934 13.901 5.15692 14.2764 5.33198L17.7572 6.95511C18.1326 7.13017 18.2951 7.5764 18.12 7.95181L17.1361 10.0618" stroke="white" stroke-width="1.125"/>
<path d="M10.0898 12.2892V13.8397C10.0898 15.088 11.1018 16.1 12.3501 16.1H12.7741C14.0224 16.1 15.0343 15.088 15.0343 13.8397V12.2892" stroke="white" stroke-width="1.125"/>
</svg>
