<svg width="24" height="24" viewBox="0 0 24 24" fill="none" xmlns="http://www.w3.org/2000/svg">
<rect x="3.25" y="4.67847" width="17.5" height="16.4561" rx="1.25" stroke="#4D5358" stroke-width="1.5"/>
<path d="M3.25 5.92871C3.25 5.23836 3.80964 4.67871 4.5 4.67871H19.5C20.1904 4.67871 20.75 5.23836 20.75 5.92871V8.74902C20.75 8.88709 20.6381 8.99902 20.5 8.99902H3.5C3.36193 8.99902 3.25 8.88709 3.25 8.74902V5.92871Z" stroke="#4D5358" stroke-width="1.5"/>
<rect x="5.67773" y="11.1907" width="3.54849" height="1.5" rx="0.75" fill="#4D5358"/>
<rect x="5.67773" y="14.1321" width="3.54849" height="1.5" rx="0.75" fill="#4D5358"/>
<rect x="5.67773" y="17.1731" width="3.54849" height="1.5" rx="0.75" fill="#4D5358"/>
<rect x="10.2266" y="17.1731" width="3.54849" height="1.5" rx="0.75" fill="#4D5358"/>
<rect x="14.7734" y="17.1731" width="3.54849" height="1.5" rx="0.75" fill="#4D5358"/>
<rect x="10.2266" y="11.1907" width="3.54849" height="1.5" rx="0.75" fill="#4D5358"/>
<rect x="10.2266" y="14.1321" width="3.54849" height="1.5" rx="0.75" fill="#4D5358"/>
<rect x="14.7734" y="11.1907" width="3.54849" height="1.5" rx="0.75" fill="#4D5358"/>
<rect x="14.7734" y="14.1321" width="3.54849" height="1.5" rx="0.75" fill="#4D5358"/>
<rect x="6.5" y="1.13574" width="1.5" height="5.52246" rx="0.75" fill="#4D5358"/>
<rect x="16" y="1.13574" width="1.5" height="5.52246" rx="0.75" fill="#4D5358"/>
</svg>
