<svg width="30" height="30" viewBox="0 0 30 30" fill="none" xmlns="http://www.w3.org/2000/svg">
<rect width="30" height="30" rx="15" fill="#DDE1E3"/>
<path d="M15.0959 14.322C15.0359 14.316 14.9639 14.316 14.8979 14.322C13.4699 14.274 12.3359 13.104 12.3359 11.664C12.3359 10.194 13.5239 9 14.9999 9C16.4699 9 17.6639 10.194 17.6639 11.664C17.6579 13.104 16.5239 14.274 15.0959 14.322Z" stroke="#A2A9AD" stroke-width="0.9" stroke-linecap="round" stroke-linejoin="round"/>
<path d="M12.0958 16.5364C10.6438 17.5084 10.6438 19.0924 12.0958 20.0584C13.7458 21.1624 16.4518 21.1624 18.1018 20.0584C19.5538 19.0864 19.5538 17.5024 18.1018 16.5364C16.4578 15.4384 13.7518 15.4384 12.0958 16.5364Z" stroke="#A2A9AD" stroke-width="0.9" stroke-linecap="round" stroke-linejoin="round"/>
</svg>
