<svg width="24" height="24" viewBox="0 0 24 24" fill="none" xmlns="http://www.w3.org/2000/svg">
<path d="M13.25 5.75C13.25 4.925 12.575 4.25 11.75 4.25C10.925 4.25 10.25 4.925 10.25 5.75C10.25 6.575 10.925 7.25 11.75 7.25C12.575 7.25 13.25 6.575 13.25 5.75Z" fill="#121619"/>
<path d="M13.25 18.75C13.25 17.925 12.575 17.25 11.75 17.25C10.925 17.25 10.25 17.925 10.25 18.75C10.25 19.575 10.925 20.25 11.75 20.25C12.575 20.25 13.25 19.575 13.25 18.75Z" fill="#121619"/>
<path d="M13.25 12.25C13.25 11.425 12.575 10.75 11.75 10.75C10.925 10.75 10.25 11.425 10.25 12.25C10.25 13.075 10.925 13.75 11.75 13.75C12.575 13.75 13.25 13.075 13.25 12.25Z" fill="#121619"/>
</svg>
