<svg width="24" height="24" viewBox="0 0 24 24" fill="none" xmlns="http://www.w3.org/2000/svg">
<path d="M18.6328 21H5.36721C4.61212 21 4 20.3879 4 19.6328C4 16.9594 5.93276 14.6779 8.56976 14.2384L9.2331 14.1278C9.7435 14.0428 10.26 14 10.7775 14H12H13.2225C13.74 14 14.2565 14.0428 14.7669 14.1278L15.4302 14.2384C18.0672 14.6779 20 16.9594 20 19.6328C20 20.3879 19.3879 21 18.6328 21Z" fill="url(#paint0_linear_497_29637)" stroke="url(#paint1_linear_497_29637)" stroke-linecap="round" stroke-linejoin="round"/>
<path d="M12 11C14.2091 11 16 9.20914 16 7C16 4.79086 14.2091 3 12 3C9.79086 3 8 4.79086 8 7C8 9.20914 9.79086 11 12 11Z" fill="url(#paint2_linear_497_29637)" stroke="url(#paint3_linear_497_29637)" stroke-linecap="round" stroke-linejoin="round"/>
<path d="M12.5 4C13.5 4 15 5 15 6.5" stroke="white" stroke-width="1.5" stroke-linecap="round"/>
<defs>
<linearGradient id="paint0_linear_497_29637" x1="3.66675" y1="13.854" x2="7.04178" y2="24.1398" gradientUnits="userSpaceOnUse">
<stop stop-color="#FEBAD4"/>
<stop offset="0.566666" stop-color="#FF2882"/>
<stop offset="1" stop-color="#FF0069"/>
</linearGradient>
<linearGradient id="paint1_linear_497_29637" x1="3.66675" y1="13.854" x2="7.04178" y2="24.1398" gradientUnits="userSpaceOnUse">
<stop stop-color="#FEBAD4"/>
<stop offset="0.566666" stop-color="#FF2882"/>
<stop offset="1" stop-color="#FF0069"/>
</linearGradient>
<linearGradient id="paint2_linear_497_29637" x1="7.83337" y1="2.83317" x2="14.0834" y2="11.1665" gradientUnits="userSpaceOnUse">
<stop stop-color="#FEBAD4"/>
<stop offset="0.566666" stop-color="#FF2882"/>
<stop offset="1" stop-color="#FF0069"/>
</linearGradient>
<linearGradient id="paint3_linear_497_29637" x1="7.83337" y1="2.83317" x2="14.0834" y2="11.1665" gradientUnits="userSpaceOnUse">
<stop stop-color="#FEBAD4"/>
<stop offset="0.566666" stop-color="#FF2882"/>
<stop offset="1" stop-color="#FF0069"/>
</linearGradient>
</defs>
</svg>
