<svg width="16" height="16" viewBox="0 0 16 16" fill="none" xmlns="http://www.w3.org/2000/svg">
<g clip-path="url(#clip0_201_17430)">
<circle cx="8" cy="8" r="7.5" fill="#F8F8F8" stroke="#E0DFDF"/>
<path fill-rule="evenodd" clip-rule="evenodd" d="M9.97047 10.1798L9.00961 9.40434C9.28539 9.20595 9.50021 8.92814 9.62058 8.6044H8.02148V7.39551H10.874C10.9153 7.59167 10.937 7.79505 10.937 8.00351C10.937 8.10648 10.9317 8.20821 10.9214 8.30845C10.8449 9.0486 10.4933 9.70709 9.97047 10.1798Z" fill="#4285F4"/>
<mask id="mask0_201_17430" style="mask-type:alpha" maskUnits="userSpaceOnUse" x="5" y="8" width="5" height="3">
<path d="M5.39014 9.33702L6.37506 8.57227C6.61012 9.24512 7.25042 9.7278 8.00346 9.7278C8.37841 9.7278 8.72541 9.60813 9.00835 9.40491L9.96999 10.1799C9.44973 10.6502 8.76005 10.9367 8.00346 10.9367C6.86367 10.9367 5.87572 10.2866 5.39014 9.33702Z" fill="white"/>
</mask>
<g mask="url(#mask0_201_17430)">
<path d="M5.39014 9.33702L6.37506 8.57227C6.61012 9.24512 7.25042 9.7278 8.00346 9.7278C8.37841 9.7278 8.72541 9.60813 9.00835 9.40491L9.96999 10.1799C9.44973 10.6502 8.76005 10.9367 8.00346 10.9367C6.86367 10.9367 5.87572 10.2866 5.39014 9.33702Z" fill="#34A853"/>
</g>
<mask id="mask1_201_17430" style="mask-type:alpha" maskUnits="userSpaceOnUse" x="5" y="6" width="2" height="4">
<path d="M5.40292 6.64551L6.38706 7.40188C6.31732 7.5892 6.2792 7.79191 6.2792 8.00352C6.2792 8.21068 6.31573 8.4093 6.3827 8.59331L5.39234 9.34112C5.18648 8.94004 5.07031 8.48535 5.07031 8.00352C5.07031 7.5135 5.19047 7.05154 5.40292 6.64551Z" fill="white"/>
</mask>
<g mask="url(#mask1_201_17430)">
<path d="M5.40292 6.64551L6.38706 7.40188C6.31732 7.5892 6.2792 7.79191 6.2792 8.00352C6.2792 8.21068 6.31573 8.4093 6.3827 8.59331L5.39234 9.34112C5.18648 8.94004 5.07031 8.48535 5.07031 8.00352C5.07031 7.5135 5.19047 7.05154 5.40292 6.64551Z" fill="#FFC85F"/>
</g>
<mask id="mask2_201_17430" style="mask-type:alpha" maskUnits="userSpaceOnUse" x="5" y="5" width="6" height="3">
<path d="M6.38697 7.40201L5.40283 6.64564C5.89276 5.70929 6.87354 5.07031 8.00356 5.07031C8.81606 5.07031 9.5514 5.40065 10.0826 5.93435L9.2309 6.79231C8.91823 6.47553 8.48382 6.2792 8.00356 6.2792C7.26279 6.2792 6.63111 6.74629 6.38697 7.40201Z" fill="white"/>
</mask>
<g mask="url(#mask2_201_17430)">
<path d="M6.38697 7.40201L5.40283 6.64564C5.89276 5.70929 6.87354 5.07031 8.00356 5.07031C8.81606 5.07031 9.5514 5.40065 10.0826 5.93435L9.2309 6.79231C8.91823 6.47553 8.48382 6.2792 8.00356 6.2792C7.26279 6.2792 6.63111 6.74629 6.38697 7.40201Z" fill="#EA4335"/>
</g>
</g>
<defs>
<clipPath id="clip0_201_17430">
<rect width="16" height="16" fill="white"/>
</clipPath>
</defs>
</svg>
