<svg width="16" height="16" viewBox="0 0 16 16" fill="none" xmlns="http://www.w3.org/2000/svg">
<circle cx="8" cy="8" r="8" fill="#FFEB3B"/>
<path d="M7.99989 4.74023C6.03634 4.74023 4.44434 5.98705 4.44434 7.52512C4.44434 8.51949 5.10982 9.39209 6.111 9.88453C5.61382 11.5879 5.32167 11.6988 7.36848 10.2659C7.57352 10.2946 7.78448 10.3097 7.99989 10.3097C9.96345 10.3097 11.5554 9.0629 11.5554 7.52483C11.5554 5.98705 9.96345 4.74023 7.99989 4.74023Z" fill="#3E2723"/>
<path fill-rule="evenodd" clip-rule="evenodd" d="M6.97471 6.89459C7.06833 6.62999 7.42745 6.63029 7.52137 6.89488C7.62755 7.2241 7.74503 7.50468 7.8412 7.73437C8.01422 8.14758 8.11827 8.39608 7.96345 8.46673C7.71338 8.58004 7.65473 8.40423 7.60441 8.25341C7.59051 8.21177 7.57726 8.17203 7.56078 8.14081H6.9353C6.91873 8.17222 6.90543 8.21214 6.8915 8.25392C6.84121 8.40489 6.78279 8.58021 6.53263 8.46673C6.37779 8.39581 6.4854 8.13842 6.65956 7.72183C6.75534 7.49272 6.87125 7.21546 6.97471 6.89459ZM7.24819 7.20184L7.04315 7.77992H7.45293L7.24819 7.20184Z" fill="#FFEB3B"/>
<path d="M6.03414 8.49769C5.67917 8.49769 5.88895 8.00672 5.8291 7.09265C5.70199 7.07072 5.30762 7.18065 5.30762 6.89324C5.30762 6.78332 5.39799 6.69384 5.5088 6.69384C6.25488 6.74717 6.76036 6.55458 6.76036 6.89324C6.76036 7.18569 6.38258 7.06806 6.23888 7.09265C6.17962 8.00376 6.38851 8.49769 6.03414 8.49769V8.49769Z" fill="#FFEB3B"/>
<path d="M8.34201 8.46809C7.9986 8.46809 8.20749 8.00439 8.14557 6.89742C8.14557 6.62779 8.56423 6.62809 8.56423 6.89742V8.09446C8.76246 8.12083 9.19683 7.99668 9.19683 8.28113C9.19653 8.5795 8.72986 8.43016 8.34201 8.46809V8.46809Z" fill="#FFEB3B"/>
<path d="M10.2391 8.40891L9.75787 7.77573L9.68676 7.84654V8.29099C9.68676 8.40358 9.59491 8.49484 9.48143 8.49484C9.12499 8.49484 9.33861 7.98166 9.27639 6.89721C9.27639 6.78491 9.36824 6.69336 9.48143 6.69336C9.79106 6.69336 9.65743 7.13129 9.68647 7.33514C10.2672 6.78017 10.2533 6.72121 10.3727 6.72121C10.5374 6.72121 10.6385 6.92595 10.5288 7.03469L10.0613 7.49899L10.5662 8.16358C10.7309 8.3784 10.4017 8.62462 10.2391 8.40891V8.40891Z" fill="#FFEB3B"/>
</svg>
