<svg width="32" height="32" viewBox="0 0 32 32" fill="none" xmlns="http://www.w3.org/2000/svg">
<rect x="6.37891" y="12.7603" width="16.9104" height="11.2393" rx="2" transform="rotate(-15 6.37891 12.7603)" fill="#DEF1FE" stroke="#B0DBFD"/>
<path d="M22.2657 9.53609L17.3127 14.6854C16.5446 15.4839 15.399 15.7941 14.3329 15.4921L7.38379 13.5237" stroke="#B0DBFD"/>
<path d="M16.5811 17.6178C16.5233 17.6574 16.4181 17.6856 16.3482 17.6802C15.7538 17.6402 14.3289 17.1906 13.9766 15.8759C13.8211 15.2956 14.163 14.7007 14.7396 14.5462C15.0814 14.4547 15.428 14.5389 15.6862 14.7435C15.8074 14.4373 16.0674 14.1905 16.4073 14.0994C16.9839 13.9449 17.5774 14.2891 17.7329 14.8694C18.0851 16.1841 17.076 17.2859 16.5811 17.6178Z" fill="#FF0069"/>
</svg>
