<svg width="106" height="106" viewBox="0 0 106 106" fill="none" xmlns="http://www.w3.org/2000/svg">
<g filter="url(#filter0_d_1883_15332)">
<rect x="13" y="21" width="80" height="80" rx="40" fill="white" shape-rendering="crispEdges"/>
<rect x="13" y="21" width="80" height="80" rx="40" stroke="white" stroke-opacity="0.5" stroke-width="2" shape-rendering="crispEdges"/>
<path d="M40.9105 61.1599C40.8932 61.5706 40.7333 61.8628 40.4307 62.0364C40.1469 62.2246 39.8161 62.3081 39.4381 62.2867C39.0769 62.2632 38.763 62.1403 38.4966 61.9178C38.2469 61.6933 38.1391 61.3746 38.1732 60.9618C38.0111 61.3053 37.7725 61.5136 37.4574 61.5865C37.1402 61.6428 36.8284 61.6047 36.5219 61.4723C36.2322 61.3378 36.0109 61.1354 35.8579 60.8648C35.7029 60.5776 35.698 60.2632 35.8433 59.9218C35.4648 60.309 35.1391 60.5025 34.866 60.5022C34.6098 60.4998 34.4745 60.3718 34.4601 60.1182C34.4604 59.8458 34.6582 59.5149 35.0535 59.1256C34.8077 59.207 34.5715 59.1596 34.3449 58.9833C34.1183 58.807 33.9159 58.5511 33.7378 58.2156C33.5597 57.8801 33.4319 57.5384 33.3546 57.1904C33.2753 56.8257 33.2599 56.4956 33.3085 56.2002C33.3572 55.9047 33.496 55.7173 33.725 55.638C33.3386 55.6857 33.0258 55.5711 32.7867 55.2942C32.5644 55.0153 32.4293 54.6829 32.3815 54.2973C32.3315 53.8949 32.3803 53.5313 32.5276 53.2067C32.6918 52.88 32.9672 52.6927 33.3537 52.645C32.9 52.701 32.5409 52.6262 32.2765 52.4205C32.0269 52.196 31.8823 51.9245 31.8428 51.6059C31.8032 51.2873 31.8781 50.9971 32.0674 50.7354C32.2736 50.4716 32.6035 50.3117 33.0572 50.2556C32.6035 50.3117 32.2413 50.2117 31.9707 49.9557C31.698 49.683 31.5377 49.3538 31.4899 48.9681C31.442 48.5825 31.518 48.2326 31.7179 47.9185C31.9157 47.5876 32.2415 47.3941 32.6952 47.3381C32.2583 47.3921 31.9202 47.3487 31.6809 47.208C31.4417 47.0673 31.3085 46.888 31.2815 46.67C31.2524 46.4353 31.3366 46.2206 31.5343 46.0259C31.7319 45.8313 32.0492 45.7069 32.4861 45.653C32.432 45.217 32.5426 44.8714 32.818 44.616C33.1082 44.3418 33.4633 44.1788 33.8834 44.1269C34.3035 44.075 34.6867 44.1383 35.033 44.3168C35.3793 44.4953 35.5795 44.8026 35.6336 45.2385C35.5795 44.8026 35.623 44.4652 35.7639 44.2265C35.9197 43.9689 36.1067 43.8266 36.3252 43.7997C36.5436 43.7727 36.7514 43.8662 36.9486 44.0801C37.1605 44.2753 37.2935 44.5908 37.3476 45.0268C37.837 44.9833 38.2211 45.1231 38.5001 45.4462C38.7769 45.7525 38.935 46.133 38.9744 46.5878C39.0306 47.0405 38.9545 47.4585 38.7461 47.8418C38.5357 48.2083 38.1858 48.4132 37.6964 48.4567C38.0997 48.4069 38.4083 48.4879 38.6223 48.6998C38.853 48.9096 38.9871 49.1655 39.0246 49.4673C39.062 49.7691 38.9945 50.0498 38.822 50.3095C38.6642 50.5503 38.3837 50.6956 37.9804 50.7454C38.6357 50.6645 39.0757 50.7037 39.3002 50.8633C39.5415 51.0207 39.5644 51.2052 39.3688 51.4166C39.1901 51.626 38.773 51.7711 38.1177 51.8521C38.4874 51.8064 38.7792 51.8895 38.9932 52.1014C39.2071 52.3133 39.3423 52.5775 39.3986 52.8941C39.4529 53.1938 39.4126 53.4882 39.2779 53.7772C39.1579 54.0474 38.9329 54.2284 38.6031 54.3202C39.0358 54.2327 39.3813 54.2667 39.6394 54.422C39.8975 54.5774 40.0517 54.7882 40.1017 55.0544C40.1686 55.3185 40.1232 55.571 39.9654 55.8118C40.2511 55.7765 40.3917 55.8783 40.3872 56.1172C40.8958 55.816 41.4356 55.7664 42.0066 55.9682C41.9818 55.6308 42.0745 55.3469 42.2848 55.1167C42.5098 54.8676 42.8102 54.7453 43.1862 54.7499C42.9259 54.5778 42.7309 54.3125 42.6012 53.954C42.4714 53.5955 42.4077 53.2203 42.4103 52.8284C42.4129 52.4365 42.4899 52.095 42.6415 51.8039C42.8098 51.5107 43.0536 51.3444 43.3729 51.3049C42.9024 51.3631 42.5287 51.239 42.2519 50.9327C41.9897 50.6076 41.8316 50.2271 41.7775 49.7911C41.7213 49.3384 41.7817 48.9308 41.9585 48.5685C42.1501 48.1873 42.4811 47.9677 42.9516 47.9095C42.5483 47.9594 42.2302 47.871 41.9974 47.6444C41.7645 47.4178 41.6283 47.1452 41.5888 46.8266C41.5472 46.4913 41.6116 46.1854 41.782 45.909C41.9525 45.6325 42.2393 45.4694 42.6426 45.4196C42.2774 45.2264 42.0792 45.004 42.048 44.7525C42.0336 44.4989 42.1388 44.3156 42.3637 44.2027C42.5864 44.0731 42.8804 44.1049 43.2456 44.2981C43.1874 43.8286 43.2361 43.4651 43.3918 43.2075C43.5475 42.9499 43.743 42.8066 43.9782 42.7775C44.2135 42.7484 44.4381 42.8399 44.6521 43.0518C44.866 43.2637 45.0021 43.6044 45.0604 44.0739C45.0063 43.6379 45.0498 43.3006 45.1907 43.0618C45.3465 42.8042 45.5335 42.662 45.752 42.635C45.9704 42.608 46.1782 42.7015 46.3754 42.9155C46.5873 43.1106 46.7203 43.4261 46.7744 43.8621C47.1504 43.7305 47.4707 43.7676 47.7351 43.9732C48.0142 44.1601 48.2092 44.4254 48.3201 44.7692C48.4457 45.0942 48.4527 45.4253 48.341 45.7626C48.244 46.081 48.0064 46.2976 47.6282 46.4124C48.0147 46.3647 48.3296 46.496 48.5728 46.8064C48.8161 47.1169 48.9648 47.4901 49.0189 47.926C49.073 48.362 49.02 48.7601 48.86 49.1203C48.6979 49.4638 48.4236 49.6595 48.0371 49.7072C48.39 49.6636 48.6912 49.7541 48.9409 49.9786C49.1884 50.1864 49.3687 50.4705 49.4817 50.8311C49.5926 51.1749 49.6363 51.527 49.6128 51.8875C49.5893 52.2479 49.4839 52.5673 49.2966 52.8458C49.1073 53.1076 48.8362 53.2602 48.4834 53.3038C49.0547 53.2332 49.4442 53.2788 49.6519 53.4404C49.8765 53.5999 49.8993 53.7843 49.7206 53.9937C49.5586 54.201 49.192 54.3399 48.6207 54.4105C49.2696 54.4154 49.7021 54.5322 49.9182 54.7609C50.1321 54.9728 50.1256 55.1949 49.8985 55.4273C49.6861 55.6408 49.2555 55.7451 48.6065 55.7401C49.018 55.8936 49.2791 56.1422 49.3901 56.486C49.501 56.8299 49.4932 57.1798 49.3668 57.5359C49.2383 57.8753 49.0153 58.1412 48.698 58.3336C48.3975 58.5239 48.032 58.535 47.6017 58.3669C47.9877 58.7278 48.1879 59.035 48.2023 59.2886C48.2314 59.5234 48.1189 59.6479 47.8648 59.6623C47.6254 59.6578 47.3127 59.4751 46.9267 59.1142C47.1803 59.5085 47.2839 59.8617 47.2373 60.1739C47.2055 60.4673 47.0792 60.6872 46.8585 60.8336C46.6525 60.9612 46.3995 60.984 46.0992 60.9019C45.8137 60.801 45.5441 60.5534 45.2905 60.1591C45.4118 60.5868 45.32 60.9471 45.0152 61.2401C44.7292 61.5478 44.3289 61.759 43.8142 61.8737C43.3184 62.0031 42.7997 62.0161 42.2579 61.9128C41.733 61.8074 41.2839 61.5564 40.9105 61.1599Z" fill="#FF0069"/>
<path d="M71.3087 51.2027C71.5157 51.2205 71.6879 51.3111 71.8254 51.4743C71.9628 51.6375 72.0226 51.8223 72.0047 52.0288L71.7456 55.0138C71.498 57.8673 70.3356 59.9042 68.2584 61.1243C66.2017 62.3273 63.5741 62.7907 60.3758 62.5143C57.1775 62.2379 54.6594 61.33 52.8217 59.7905C51.0045 58.2338 50.2213 56.0099 50.4722 53.1188L50.7605 49.796C50.9267 47.8811 51.5347 46.3354 52.5846 45.1589C53.636 43.9636 54.9874 43.1346 56.6387 42.6721C58.29 42.2095 60.1222 42.0652 62.1353 42.2391C64.5434 42.4472 66.4941 43.013 67.9872 43.9364C69.4803 44.8598 70.5318 45.849 71.1415 46.9042C71.7701 47.9609 72.0575 48.7991 72.0037 49.4186C71.9891 49.5876 71.9102 49.7321 71.7671 49.8521C71.6444 49.955 71.4985 49.9991 71.3291 49.9845L64.9513 49.4334C64.575 49.4009 64.3111 49.274 64.1597 49.0529C63.6401 48.2703 62.8064 47.8295 61.6588 47.7303C60.7933 47.6555 60.0519 47.7901 59.4344 48.1339C58.8358 48.4794 58.5096 48.9619 58.4559 49.5814L58.0404 54.3686C57.9753 55.1195 58.2061 55.7353 58.7331 56.2158C59.2617 56.6776 59.9681 56.9467 60.8523 57.0231C62.0188 57.1239 62.8919 57.0007 63.4717 56.6537C64.072 56.2894 64.4051 55.8359 64.4712 55.2931L62.7215 55.1419C62.5146 55.124 62.3423 55.0335 62.2049 54.8703C62.0674 54.7071 62.0076 54.5223 62.0255 54.3157L62.2968 51.19C62.3147 50.9835 62.4054 50.8116 62.569 50.6745C62.7325 50.5373 62.9178 50.4776 63.1247 50.4955L71.3087 51.2027Z" fill="#A821FB"/>
<path d="M42.8316 80.68C41.793 80.68 40.811 80.5857 39.8857 80.3973C38.9604 80.19 38.1578 79.9451 37.478 79.6624C36.7981 79.3797 36.2977 79.1159 35.9767 78.871V73.8115C36.8831 74.3203 38.0256 74.8008 39.4041 75.253C40.7827 75.6864 42.3123 75.9031 43.993 75.9031C44.6728 75.9031 45.1733 75.8183 45.4943 75.6487C45.8342 75.4603 46.0042 75.1399 46.0042 74.6877C46.0042 74.1978 45.6265 73.7926 44.8711 73.4723C44.1346 73.1331 42.9638 72.7185 41.3587 72.2286C40.1123 71.8329 39.0453 71.3995 38.1578 70.9284C37.2891 70.4385 36.6187 69.8355 36.1466 69.1194C35.6934 68.3845 35.4668 67.4518 35.4668 66.3212C35.4668 65.1529 35.7689 64.0976 36.3732 63.1554C36.9775 62.2133 37.9217 61.4689 39.2059 60.9225C40.49 60.376 42.1329 60.1028 44.1346 60.1028C44.7389 60.1028 45.381 60.131 46.0608 60.1876C46.7595 60.2253 47.3166 60.2818 47.7321 60.3572L50.9329 62.7032L49.8282 66.1516L43.1149 64.3143C42.3406 64.3143 41.7647 64.4745 41.387 64.7948C41.0282 65.1152 40.8488 65.5015 40.8488 65.9537C40.8488 66.5002 41.1604 66.9336 41.7836 67.2539C42.4067 67.5743 43.3037 67.8946 44.4745 68.2149C46.3252 68.7237 47.7604 69.289 48.7801 69.9109C49.7999 70.5327 50.5175 71.2393 50.9329 72.0308C51.3484 72.8033 51.5561 73.6796 51.5561 74.6594C51.5561 76.4684 50.8291 77.9288 49.375 79.0406C47.9209 80.1335 45.7398 80.68 42.8316 80.68Z" fill="black"/>
<path d="M54.1544 78.577C53.9612 78.5562 53.802 78.4682 53.6767 78.3129C53.5513 78.1577 53.499 77.9837 53.5199 77.7909L55.3531 60.8124C55.3739 60.6197 55.4621 60.4608 55.6177 60.3357C55.7733 60.2106 55.9477 60.1585 56.1408 60.1792L60.3024 60.6266C60.6536 60.6644 60.9066 60.7891 61.0614 61.0007C61.2162 61.2123 61.3152 61.3648 61.3584 61.458L64.4965 68.1764L68.9968 62.2792C69.0589 62.1973 69.1882 62.0694 69.3846 61.8955C69.581 61.7217 69.8548 61.6536 70.206 61.6914L74.3675 62.1388C74.5607 62.1595 74.7199 62.2476 74.8453 62.4028C74.9706 62.5581 75.0229 62.7321 75.0021 62.9248L73.1689 79.9034C73.1481 80.0961 73.0599 80.255 72.9042 80.3801C72.7486 80.5051 72.5742 80.5573 72.3811 80.5365L67.6137 80.024C67.4206 80.0032 67.2613 79.9152 67.136 79.7599C67.0106 79.6047 66.9584 79.4306 66.9792 79.2379L67.7567 72.0365L65.7119 74.6881C65.6089 74.8189 65.4699 74.9546 65.2949 75.0953C65.1393 75.2204 64.9298 75.2687 64.6664 75.2404L62.8226 75.0422C62.5592 75.0139 62.3561 74.9211 62.2132 74.764C62.0897 74.5912 61.9917 74.43 61.919 74.2804L60.4871 71.255L59.7096 78.4564C59.6888 78.6491 59.6005 78.808 59.4449 78.9331C59.2893 79.0582 59.1149 79.1103 58.9218 79.0895L54.1544 78.577ZM73.893 62.8322C73.7288 62.7082 73.5494 62.7244 73.3549 62.8807C73.2771 62.9432 73.2432 63.0105 73.2531 63.0825C73.2826 63.1388 73.318 63.2224 73.3593 63.3332C73.4025 63.4264 73.4301 63.5003 73.442 63.5548C73.4714 63.6111 73.5397 63.6362 73.647 63.63C73.7718 63.6257 73.8624 63.6088 73.9189 63.5794C73.9929 63.5519 74.0453 63.4778 74.0761 63.3571C74.1358 63.133 74.0748 62.9581 73.893 62.8322ZM69.9579 62.7548C69.8407 62.689 69.7441 62.6786 69.6682 62.7236C69.6098 62.7705 69.5311 62.8418 69.4319 62.9375C69.3522 63.0176 69.3174 63.0936 69.3274 63.1656C69.3393 63.22 69.3668 63.2939 69.41 63.3872C69.4827 63.5368 69.5999 63.6026 69.7617 63.5845C69.9255 63.5489 70.0246 63.4532 70.0592 63.2974C70.0743 63.1573 70.0857 63.0521 70.0932 62.982C70.1203 62.8963 70.0752 62.8206 69.9579 62.7548ZM56.5022 61.5209L56.1485 61.5892L55.8567 61.8237L56.1764 62.0708L56.5359 61.9499L56.5022 61.5209ZM71.8372 64.8445C71.6322 64.7693 71.4967 64.7902 71.4308 64.9072C71.3824 65.0261 71.2971 65.1587 71.1747 65.3051C71.0504 65.469 70.9484 65.5909 70.8687 65.671C70.789 65.751 70.8021 65.8765 70.908 66.0474C71.0314 66.2202 71.1449 66.3211 71.2484 66.3499C71.3537 66.3612 71.5165 66.3344 71.7367 66.2695C71.9198 66.2183 72.0337 66.1507 72.0783 66.0669C72.1423 65.9674 72.1759 65.8204 72.1792 65.6258C72.1843 65.4136 72.175 65.2531 72.1513 65.1442C72.1294 65.0178 72.0247 64.9179 71.8372 64.8445ZM57.2185 64.0174C57.2005 63.8559 57.1776 63.7382 57.1501 63.6644C57.1225 63.5905 57.0297 63.5451 56.8717 63.5281C56.7137 63.5111 56.5967 63.5251 56.5208 63.5701C56.4643 63.5995 56.3925 63.6893 56.3052 63.8394C56.2393 63.9564 56.2289 64.0528 56.274 64.1285C56.321 64.1867 56.3924 64.2653 56.4883 64.3643C56.6312 64.5214 56.7971 64.5481 56.9859 64.4443C57.1729 64.3581 57.2504 64.2158 57.2185 64.0174ZM60.019 64.2387C59.9971 64.1122 59.8975 64.0484 59.72 64.047C59.6322 64.0376 59.5522 64.0378 59.4801 64.0478C59.4274 64.0421 59.3788 64.0812 59.3342 64.1651C59.3053 64.2683 59.3162 64.3315 59.367 64.3547C59.4354 64.3798 59.5106 64.4233 59.5927 64.4853C59.6573 64.5454 59.7043 64.6037 59.7337 64.66C59.7826 64.7007 59.8547 64.6907 59.9501 64.6301C60.026 64.5851 60.058 64.5353 60.0462 64.4809C60.0537 64.4108 60.0447 64.3301 60.019 64.2387ZM69.6992 65.8909C69.5588 65.8758 69.4446 65.8635 69.3568 65.8541C69.2885 65.829 69.2204 65.8837 69.1526 66.0182C69.0829 66.1703 69.0521 66.291 69.0602 66.3805C69.0702 66.4525 69.1309 66.5477 69.2425 66.666C69.3541 66.7844 69.4478 66.821 69.5237 66.776C69.5996 66.731 69.7038 66.6713 69.8362 66.5969C69.9666 66.54 70.0611 66.4881 70.1194 66.4412C70.1778 66.3943 70.197 66.2989 70.177 66.155C70.1551 66.0285 70.1003 65.9606 70.0125 65.9512C69.9441 65.9261 69.8397 65.906 69.6992 65.8909ZM61.5993 66.1368C61.4739 65.9815 61.3605 65.8807 61.2589 65.8343C61.1768 65.7723 61.052 65.7766 60.8845 65.8472C60.68 65.9316 60.5369 66.0226 60.4553 66.1201C60.3932 66.2021 60.3762 66.3598 60.4043 66.5932C60.4186 66.7897 60.4668 66.919 60.5489 66.981C60.6505 67.0274 60.8047 67.0794 61.0117 67.1371C61.1678 67.1716 61.276 67.1567 61.3362 67.0922C61.3984 67.0103 61.4721 66.903 61.5575 66.7704C61.6429 66.6378 61.6991 66.5286 61.7261 66.4429C61.7531 66.3571 61.7108 66.2551 61.5993 66.1368ZM58.8543 65.8948C58.3991 65.6686 58.043 65.5949 57.7858 65.6736C57.5305 65.7348 57.224 65.9411 56.8663 66.2926C56.6837 66.5034 56.6024 66.6808 56.6223 66.8247C56.6423 66.9687 56.714 67.1271 56.8375 67.2998C56.9609 67.4726 57.0806 67.6805 57.1965 67.9234C57.375 68.2439 57.5154 68.5071 57.6175 68.7131C57.7215 68.9015 57.9547 68.962 58.3173 68.8947C58.6974 68.8292 58.9076 68.6923 58.9478 68.4839C59.0056 68.2774 59.0641 67.9824 59.1233 67.5988C59.1711 67.3203 59.224 67.0778 59.2818 66.8714C59.3396 66.6649 59.341 66.4878 59.2859 66.34C59.2502 66.1767 59.1064 66.0283 58.8543 65.8948ZM72.466 67.4114C72.345 67.3806 72.2493 67.3615 72.1791 67.3539C72.1089 67.3464 72.0408 67.4011 71.9749 67.5181C71.9108 67.6176 71.9121 67.6886 71.9785 67.7312C72.045 67.7738 72.1183 67.8349 72.1985 67.9144C72.2593 68.0095 72.3035 68.094 72.331 68.1679C72.3586 68.2418 72.4279 68.2581 72.5389 68.2168C72.7415 68.15 72.8385 67.992 72.8299 67.743C72.8237 67.6359 72.7873 67.5611 72.7209 67.5185C72.672 67.4778 72.587 67.4421 72.466 67.4114ZM71.4124 69.0263C71.3359 68.9117 71.2528 68.8585 71.1632 68.8666C71.0754 68.8571 70.9584 68.8711 70.8122 68.9086C70.7031 68.9323 70.6447 68.9792 70.6372 69.0493C70.6296 69.1194 70.6201 69.207 70.6088 69.3121C70.5899 69.4874 70.6488 69.6 70.7855 69.6502C70.9378 69.7197 71.0551 69.7855 71.1372 69.8475C71.2193 69.9095 71.3118 69.8752 71.4148 69.7444C71.5352 69.6156 71.5914 69.5064 71.5833 69.4169C71.5771 69.3099 71.5201 69.1797 71.4124 69.0263ZM66.8216 68.8518C66.6085 68.6871 66.4298 68.6147 66.2855 68.6346C66.1432 68.6371 65.9572 68.7146 65.7275 68.8671C65.422 69.0647 65.1572 69.2135 64.9333 69.3135C64.7288 69.3978 64.67 69.6131 64.757 69.9592C64.8577 70.3423 65.0018 70.5705 65.1893 70.6438C65.3944 70.719 65.6998 70.7696 66.1055 70.7955C66.4235 70.8119 66.6339 70.7548 66.7369 70.6241C66.8573 70.4952 66.9873 70.2788 67.1267 69.9747C67.2253 69.7194 67.2471 69.5179 67.192 69.3702C67.1544 69.2244 67.031 69.0516 66.8216 68.8518ZM69.381 69.5789C69.2713 69.4431 69.1609 69.3958 69.0499 69.437C68.9194 69.4939 68.8544 69.6021 68.855 69.7617C68.8612 69.8687 68.8693 69.9582 68.8793 70.0302C68.9087 70.0865 68.9752 70.1291 69.0786 70.158C69.1821 70.1868 69.2455 70.1759 69.2687 70.1252C69.3114 70.0589 69.3638 69.9848 69.4259 69.9028C69.49 69.8034 69.475 69.6954 69.381 69.5789ZM61.6636 68.7493C61.6185 68.6735 61.5307 68.6641 61.4002 68.7209C61.3086 68.7466 61.2355 68.7653 61.181 68.7771C61.144 68.7909 61.1217 68.8328 61.1141 68.9029C61.1165 69.045 61.2036 69.1429 61.3755 69.1969C61.5473 69.2508 61.6661 69.2193 61.7321 69.1023C61.7923 69.0378 61.8068 68.9862 61.7754 68.9474C61.7635 68.8929 61.7263 68.8269 61.6636 68.7493ZM71.1639 70.8341C71.1771 70.7115 71.1963 70.6161 71.2214 70.5479C71.2641 70.4815 71.2347 70.4252 71.1331 70.3788C71.014 70.3306 70.9252 70.3299 70.8669 70.3768C70.8261 70.4256 70.757 70.4891 70.6598 70.5672C70.5763 70.6823 70.5709 70.8147 70.6436 70.9643C70.7043 71.0595 70.7504 71.1265 70.7817 71.1653C70.8306 71.206 70.9096 71.2145 71.0188 71.1908C71.1085 71.1827 71.1474 71.1514 71.1355 71.097C71.1431 71.0269 71.1525 70.9393 71.1639 70.8341ZM63.613 69.9426C63.4118 69.8323 63.2538 69.8153 63.1389 69.8916C63.0241 69.9679 62.8861 70.0949 62.7248 70.2725C62.5459 70.4482 62.406 70.5927 62.305 70.7059C62.2058 70.8016 62.2151 70.9622 62.3329 71.1875C62.4644 71.4498 62.5976 71.6148 62.7324 71.6825C62.8691 71.7326 63.0729 71.7368 63.3439 71.695C63.5973 71.6514 63.7316 71.5594 63.7467 71.4193C63.7794 71.281 63.8178 71.0901 63.8618 70.8467C63.904 70.6208 63.9229 70.4456 63.9186 70.3211C63.9337 70.1809 63.8319 70.0547 63.613 69.9426ZM55.7619 69.3644L55.5946 69.1869L55.49 69.4149L55.552 69.5811L55.7656 69.5775L55.7619 69.3644ZM72.9626 72.4366C72.8932 72.0924 72.7842 71.868 72.6356 71.7634C72.4889 71.6413 72.24 71.5613 71.8888 71.5236C71.5551 71.4877 71.3115 71.5236 71.1578 71.6311C71.0235 71.723 70.8866 71.921 70.7472 72.2251C70.6273 72.5135 70.5948 72.7316 70.65 72.8793C70.7051 73.027 70.8539 73.2114 71.0965 73.4325C71.2902 73.6128 71.4601 73.6843 71.6062 73.6468C71.7524 73.6093 71.9393 73.5231 72.1671 73.388C72.4318 73.2393 72.6401 73.1198 72.7919 73.0298C72.9632 72.9242 73.0201 72.7264 72.9626 72.4366ZM59.8781 70.2323L59.7351 70.3233L59.6889 70.5044L59.8967 70.5534L59.9693 70.3751L59.8781 70.2323ZM56.7441 70.8791C56.5485 70.7163 56.3931 70.5932 56.2777 70.5099C56.1643 70.4091 56.0034 70.4184 55.7951 70.5378C55.5674 70.6729 55.4547 70.8114 55.4571 70.9535C55.4596 71.0955 55.4914 71.2939 55.5527 71.5487C55.5965 71.8015 55.6566 71.9853 55.733 72.0998C55.8114 72.1969 55.9735 72.2586 56.2193 72.285C56.5354 72.319 56.7821 72.3367 56.9596 72.338C57.1566 72.3238 57.315 72.1724 57.435 71.884C57.5549 71.5955 57.5221 71.4059 57.3365 71.3151C57.1685 71.2261 56.971 71.0808 56.7441 70.8791ZM59.5304 71.2319L59.2605 71.0167L59.0976 71.2917L59.1539 71.5104L59.4935 71.5735L59.5304 71.2319ZM64.6823 72.1314C64.5494 72.0462 64.445 72.0261 64.3691 72.0711C64.2932 72.1161 64.1969 72.1855 64.0802 72.2793C63.9245 72.4044 63.889 72.569 63.9736 72.773C64.0149 72.8838 64.0503 72.9674 64.0797 73.0237C64.1267 73.082 64.2214 73.1099 64.3638 73.1075C64.5061 73.105 64.6143 73.0901 64.6883 73.0626C64.7643 73.0176 64.8273 72.9269 64.8776 72.7905C64.9141 72.6171 64.9195 72.4848 64.8938 72.3934C64.8857 72.3039 64.8152 72.2166 64.6823 72.1314ZM70.5032 74.4854C70.3114 74.2875 70.1484 74.2345 70.0141 74.3264C69.8817 74.4008 69.6938 74.4958 69.4504 74.6115C69.1876 74.7427 68.9558 74.833 68.755 74.8824C68.5719 74.9336 68.5081 75.1128 68.5638 75.4201C68.5999 75.7431 68.6933 75.9481 68.8437 76.0352C69.0137 76.1066 69.2645 76.169 69.5962 76.2224C69.8577 76.2682 70.0302 76.2336 70.1137 76.1185C70.2166 75.9878 70.3252 75.8045 70.4395 75.5686C70.5714 75.3346 70.6624 75.1494 70.7127 75.013C70.7648 74.8591 70.695 74.6832 70.5032 74.4854ZM72.0722 74.7604L71.7213 74.8024L71.5762 75.1591L71.9129 75.2484L72.1933 75.1191L72.0722 74.7604ZM57.3404 74.2401C57.3556 74.0999 57.3669 73.9948 57.3745 73.9247C57.3821 73.8546 57.3263 73.7955 57.2071 73.7472C57.088 73.6989 56.9983 73.707 56.9381 73.7715C56.8973 73.8202 56.8361 73.8934 56.7545 73.991C56.671 74.1061 56.6753 74.2306 56.7675 74.3646C56.8558 74.5336 56.973 74.5994 57.1192 74.562C57.2478 74.5226 57.3215 74.4153 57.3404 74.2401ZM71.7175 78.0457C71.6172 77.8222 71.5289 77.6532 71.4525 77.5386C71.3936 77.426 71.2384 77.3827 70.9869 77.4088C70.7354 77.435 70.56 77.4959 70.4609 77.5916C70.3617 77.6873 70.2804 77.8646 70.2169 78.1237C70.1729 78.3671 70.1803 78.5451 70.2392 78.6578C70.2981 78.7705 70.436 78.8917 70.6529 79.0214C70.9031 79.1723 71.1034 79.2913 71.2538 79.3784C71.4062 79.448 71.5912 79.3792 71.809 79.1722C72.023 79.0003 72.0848 78.8385 71.9946 78.687C71.9238 78.5199 71.8315 78.3061 71.7175 78.0457ZM57.534 76.1486L57.2877 75.9626L56.9218 75.8967L56.8999 76.3463L57.295 76.3888L57.534 76.1486ZM68.3696 77.7124L68.092 77.8155L68.0579 78.1309L68.3626 78.27L68.5811 77.9744L68.3696 77.7124Z" fill="#FF0069"/>
</g>
<defs>
<filter id="filter0_d_1883_15332" x="0" y="0" width="106" height="106" filterUnits="userSpaceOnUse" color-interpolation-filters="sRGB">
<feFlood flood-opacity="0" result="BackgroundImageFix"/>
<feColorMatrix in="SourceAlpha" type="matrix" values="0 0 0 0 0 0 0 0 0 0 0 0 0 0 0 0 0 0 127 0" result="hardAlpha"/>
<feOffset dy="-8"/>
<feGaussianBlur stdDeviation="6"/>
<feComposite in2="hardAlpha" operator="out"/>
<feColorMatrix type="matrix" values="0 0 0 0 0 0 0 0 0 0 0 0 0 0 0 0 0 0 0.04 0"/>
<feBlend mode="normal" in2="BackgroundImageFix" result="effect1_dropShadow_1883_15332"/>
<feBlend mode="normal" in="SourceGraphic" in2="effect1_dropShadow_1883_15332" result="shape"/>
</filter>
</defs>
</svg>
