<svg width="100" height="100" viewBox="0 0 100 100" fill="none" xmlns="http://www.w3.org/2000/svg">
<rect x="0.5" y="0.5" width="99" height="99" rx="12.5" fill="white"/>
<rect x="0.5" y="0.5" width="99" height="99" rx="12.5" stroke="#A2A9AD"/>
<path d="M59.6799 54.9601L56.5499 47.6501C55.4899 45.1701 53.5399 45.0701 52.2299 47.4301L50.3399 50.8401C49.3799 52.5701 47.5899 52.7201 46.3499 51.1701L46.1299 50.8901C44.8399 49.2701 43.0199 49.4701 42.0899 51.3201L40.3699 54.7701C39.1599 57.1701 40.9099 60.0001 43.5899 60.0001H56.3499C58.9499 60.0001 60.6999 57.3501 59.6799 54.9601Z" stroke="#A2A9AD" stroke-width="1.5" stroke-linecap="round" stroke-linejoin="round"/>
<path d="M44.9697 46C46.6266 46 47.9697 44.6569 47.9697 43C47.9697 41.3431 46.6266 40 44.9697 40C43.3129 40 41.9697 41.3431 41.9697 43C41.9697 44.6569 43.3129 46 44.9697 46Z" stroke="#A2A9AD" stroke-width="1.5" stroke-linecap="round" stroke-linejoin="round"/>
</svg>
