<svg width="25" height="24" viewBox="0 0 25 24" fill="none" xmlns="http://www.w3.org/2000/svg">
<circle cx="12.5" cy="12" r="12" fill="#FF2882"/>
<path d="M12.9428 18.8047C12.7001 18.8904 12.3003 18.8904 12.0577 18.8047C9.98767 18.0981 5.3623 15.1501 5.3623 10.1536C5.3623 9.16351 5.88745 6.53849 8.58098 6.16351C11.4845 5.75931 12.5002 9.2624 12.5002 9.2624C12.5002 9.2624 13.4514 5.78854 16.4194 6.16351C19.3875 6.53849 19.6381 9.16351 19.6381 10.1536C19.6381 15.1501 15.0128 18.0981 12.9428 18.8047Z" stroke="white" stroke-width="1.125" stroke-linecap="round" stroke-linejoin="round"/>
<path d="M18.5918 7.7984L9.28125 17.1088" stroke="white" stroke-width="1.125"/>
<path d="M14.8269 16.2255C15.0465 16.4452 15.4027 16.4452 15.6224 16.2255C15.842 16.0059 15.842 15.6497 15.6224 15.43L14.8269 16.2255ZM15.6224 15.43L13.4615 13.2691L12.666 14.0646L14.8269 16.2255L15.6224 15.43Z" fill="white"/>
<path d="M12.8824 13.3014C12.1402 12.4676 10.5208 11.1153 9.98056 12.376C9.30526 13.9517 12.4825 13.9017 12.8824 13.3014Z" stroke="white" stroke-width="1.125"/>
<path d="M13.4135 13.3014C14.1557 12.4676 15.7751 11.1153 16.3153 12.376C16.9906 13.9517 13.8134 13.9017 13.4135 13.3014Z" stroke="white" stroke-width="1.125"/>
</svg>
