<svg width="24" height="24" viewBox="0 0 24 24" fill="none" xmlns="http://www.w3.org/2000/svg">
<path d="M12 14.7954C13.5439 14.7954 14.7955 13.5439 14.7955 12C14.7955 10.4561 13.5439 9.20453 12 9.20453C10.4561 9.20453 9.20456 10.4561 9.20456 12C9.20456 13.5439 10.4561 14.7954 12 14.7954Z" stroke="#121616" stroke-width="1.5" stroke-linecap="round" stroke-linejoin="round"/>
<path d="M18.8955 14.7955C18.7714 15.0765 18.7344 15.3883 18.7892 15.6905C18.844 15.9928 18.9881 16.2718 19.203 16.4914L19.2589 16.5473C19.4321 16.7204 19.5696 16.9259 19.6634 17.1521C19.7572 17.3784 19.8054 17.6209 19.8054 17.8658C19.8054 18.1107 19.7572 18.3532 19.6634 18.5795C19.5696 18.8057 19.4321 19.0112 19.2589 19.1843C19.0858 19.3576 18.8802 19.4951 18.654 19.5888C18.4278 19.6826 18.1853 19.7309 17.9403 19.7309C17.6954 19.7309 17.4529 19.6826 17.2267 19.5888C17.0004 19.4951 16.7949 19.3576 16.6218 19.1843L16.5659 19.1284C16.3463 18.9136 16.0674 18.7695 15.7651 18.7147C15.4628 18.6599 15.1511 18.6969 14.87 18.8209C14.5944 18.939 14.3593 19.1352 14.1938 19.3852C14.0282 19.6352 13.9394 19.9281 13.9382 20.228V20.3864C13.9382 20.8806 13.7418 21.3547 13.3923 21.7042C13.0428 22.0537 12.5688 22.25 12.0745 22.25C11.5803 22.25 11.1063 22.0537 10.7568 21.7042C10.4073 21.3547 10.2109 20.8806 10.2109 20.3864V20.3025C10.2037 19.9941 10.1039 19.695 9.92438 19.444C9.74491 19.1931 9.49409 19.0019 9.20455 18.8955C8.92349 18.7714 8.61173 18.7344 8.30945 18.7892C8.00717 18.844 7.72825 18.9881 7.50864 19.203L7.45273 19.2589C7.27965 19.4321 7.07411 19.5696 6.84787 19.6634C6.62162 19.7572 6.37912 19.8054 6.1342 19.8054C5.88929 19.8054 5.64678 19.7572 5.42054 19.6634C5.1943 19.5696 4.98876 19.4321 4.81568 19.2589C4.64241 19.0858 4.50495 18.8802 4.41116 18.654C4.31738 18.4278 4.2691 18.1853 4.2691 17.9403C4.2691 17.6954 4.31738 17.4529 4.41116 17.2267C4.50495 17.0004 4.64241 16.7949 4.81568 16.6218L4.87159 16.5659C5.08641 16.3463 5.23051 16.0674 5.28532 15.7651C5.34013 15.4628 5.30313 15.1511 5.17909 14.87C5.06097 14.5944 4.86484 14.3593 4.61484 14.1938C4.36485 14.0282 4.07189 13.9394 3.77205 13.9382H3.61364C3.11937 13.9382 2.64535 13.7418 2.29585 13.3923C1.94635 13.0428 1.75 12.5688 1.75 12.0745C1.75 11.5803 1.94635 11.1063 2.29585 10.7568C2.64535 10.4073 3.11937 10.2109 3.61364 10.2109H3.6975C4.00593 10.2037 4.30505 10.1039 4.55598 9.92438C4.80692 9.74491 4.99805 9.49409 5.10455 9.20455C5.22858 8.92349 5.26559 8.61173 5.21078 8.30945C5.15597 8.00717 5.01186 7.72825 4.79705 7.50864L4.74114 7.45273C4.56786 7.27965 4.4304 7.07411 4.33662 6.84787C4.24283 6.62162 4.19456 6.37912 4.19456 6.1342C4.19456 5.88929 4.24283 5.64678 4.33662 5.42054C4.4304 5.1943 4.56786 4.98876 4.74114 4.81568C4.91422 4.64241 5.11976 4.50495 5.346 4.41116C5.57224 4.31738 5.81475 4.2691 6.05966 4.2691C6.30457 4.2691 6.54708 4.31738 6.77332 4.41116C6.99956 4.50495 7.2051 4.64241 7.37818 4.81568L7.43409 4.87159C7.6537 5.08641 7.93263 5.23051 8.23491 5.28532C8.53718 5.34013 8.84895 5.30313 9.13 5.17909H9.20455C9.48015 5.06097 9.7152 4.86484 9.88076 4.61484C10.0463 4.36485 10.1352 4.07189 10.1364 3.77205V3.61364C10.1364 3.11937 10.3327 2.64535 10.6822 2.29585C11.0317 1.94635 11.5057 1.75 12 1.75C12.4943 1.75 12.9683 1.94635 13.3178 2.29585C13.6673 2.64535 13.8636 3.11937 13.8636 3.61364V3.6975C13.8648 3.99735 13.9537 4.2903 14.1192 4.5403C14.2848 4.7903 14.5199 4.98643 14.7955 5.10455C15.0765 5.22858 15.3883 5.26559 15.6905 5.21078C15.9928 5.15597 16.2718 5.01186 16.4914 4.79705L16.5473 4.74114C16.7204 4.56786 16.9259 4.4304 17.1521 4.33662C17.3784 4.24283 17.6209 4.19456 17.8658 4.19456C18.1107 4.19456 18.3532 4.24283 18.5795 4.33662C18.8057 4.4304 19.0112 4.56786 19.1843 4.74114C19.3576 4.91422 19.4951 5.11976 19.5888 5.346C19.6826 5.57224 19.7309 5.81475 19.7309 6.05966C19.7309 6.30457 19.6826 6.54708 19.5888 6.77332C19.4951 6.99956 19.3576 7.2051 19.1843 7.37818L19.1284 7.43409C18.9136 7.6537 18.7695 7.93263 18.7147 8.23491C18.6599 8.53718 18.6969 8.84895 18.8209 9.13V9.20455C18.939 9.48015 19.1352 9.7152 19.3852 9.88076C19.6352 10.0463 19.9281 10.1352 20.228 10.1364H20.3864C20.8806 10.1364 21.3547 10.3327 21.7042 10.6822C22.0537 11.0317 22.25 11.5057 22.25 12C22.25 12.4943 22.0537 12.9683 21.7042 13.3178C21.3547 13.6673 20.8806 13.8636 20.3864 13.8636H20.3025C20.0027 13.8648 19.7097 13.9537 19.4597 14.1192C19.2097 14.2848 19.0136 14.5199 18.8955 14.7955V14.7955Z" stroke="#121616" stroke-width="1.5" stroke-linecap="round" stroke-linejoin="round"/>
</svg>
