<svg width="24" height="24" viewBox="0 0 24 24" fill="none" xmlns="http://www.w3.org/2000/svg">
<path d="M15.2228 8.37653C16.2534 8.97153 17.5784 8.61648 18.1734 7.58591C18.7684 6.55534 18.4134 5.2303 17.3828 4.6353C16.3523 4.0403 15.0272 4.39534 14.4322 5.42591C13.8372 6.45648 14.1923 7.78153 15.2228 8.37653Z" stroke="#4D5358" stroke-width="1.5" stroke-linecap="round" stroke-linejoin="round"/>
<path d="M5.87077 14.1547C6.90134 14.7497 8.22639 14.3947 8.82139 13.3641C9.41639 12.3335 9.06134 11.0085 8.03077 10.4135C7.0002 9.8185 5.67516 10.1735 5.08016 11.2041C4.48516 12.2347 4.83154 13.5547 5.87077 14.1547Z" stroke="#4D5358" stroke-width="1.5" stroke-linecap="round" stroke-linejoin="round"/>
<path d="M14.8947 19.3647C15.9253 19.9597 17.2503 19.6046 17.8453 18.5741C18.4403 17.5435 18.0853 16.2185 17.0547 15.6235C16.0241 15.0285 14.6991 15.3835 14.1041 16.4141C13.5091 17.4446 13.8641 18.7697 14.8947 19.3647Z" stroke="#4D5358" stroke-width="1.5" stroke-linecap="round" stroke-linejoin="round"/>
<path d="M8.86768 11.0573L14.4185 7.49695M8.86768 13.6604L13.9593 16.8761" stroke="#4D5358" stroke-width="1.5" stroke-linecap="round"/>
</svg>
